<?xml version="1.0" standalone="no"?><!DOCTYPE svg PUBLIC "-//W3C//DTD SVG 1.1//EN" "http://www.w3.org/Graphics/SVG/1.1/DTD/svg11.dtd"><svg class="icon" width="200px" height="200.00px" viewBox="0 0 1024 1024" version="1.1" xmlns="http://www.w3.org/2000/svg"><path d="M64 448m30 0l836 0q30 0 30 30l0 452q0 30-30 30l-836 0q-30 0-30-30l0-452q0-30 30-30Z" fill="#6eabf8" /><path d="M944.88 302.26L541.77 71.9a60.009 60.009 0 0 0-59.54 0L79.12 302.26A29.996 29.996 0 0 0 64 328.31V503.7c0 10.77 5.77 20.71 15.12 26.05L482.24 760.1a60.009 60.009 0 0 0 59.54 0L944.9 529.75a29.996 29.996 0 0 0 15.12-26.05V328.31c0-10.77-5.77-20.71-15.12-26.05z" fill="#2c46de" /><path d="M896 128H128.23v429.81l354 202.28a60.009 60.009 0 0 0 59.54 0L896 557.67V128z" fill="#E6E6E6" /><path d="M79.12 805.95L482.24 575.6a60.009 60.009 0 0 1 59.54 0L944.9 805.95A29.996 29.996 0 0 1 960.02 832v98c0 16.57-13.43 30-30 30H94c-16.57 0-30-13.43-30-30v-98c0-10.77 5.77-20.71 15.12-26.05z" fill="#2c46de" /><path d="M708.14 461.53l-81.31 42.75c-28.61 15.04-62.05-9.25-56.59-41.11l15.53-90.54a38.98 38.98 0 0 0-11.22-34.52l-65.78-64.12c-23.15-22.56-10.37-61.87 21.61-66.52l90.91-13.21a39.001 39.001 0 0 0 29.36-21.33l40.65-82.37c14.31-28.99 55.64-28.99 69.95 0l40.65 82.37a38.978 38.978 0 0 0 29.36 21.33l90.91 13.21c31.99 4.65 44.76 43.96 21.61 66.52L878 338.11a39.008 39.008 0 0 0-11.22 34.52l15.53 90.54c5.46 31.86-27.98 56.15-56.59 41.11l-81.31-42.75a39.025 39.025 0 0 0-36.3 0z" fill="#FBD13B" /></svg>