<?xml version="1.0" standalone="no"?><!DOCTYPE svg PUBLIC "-//W3C//DTD SVG 1.1//EN" "http://www.w3.org/Graphics/SVG/1.1/DTD/svg11.dtd"><svg class="icon" width="200px" height="200.00px" viewBox="0 0 1024 1024" version="1.1" xmlns="http://www.w3.org/2000/svg"><path d="M64 448m30 0l836 0q30 0 30 30l0 452q0 30-30 30l-836 0q-30 0-30-30l0-452q0-30 30-30Z" fill="#2c46de" /><path d="M944.88 302.26L541.77 71.9a60.009 60.009 0 0 0-59.54 0L79.12 302.26A29.996 29.996 0 0 0 64 328.31V503.7c0 10.77 5.77 20.71 15.12 26.05L482.24 760.1a60.009 60.009 0 0 0 59.54 0L944.9 529.75a29.996 29.996 0 0 0 15.12-26.05V328.31c0-10.77-5.77-20.71-15.12-26.05z" fill="#6eabf8" /><path d="M896 128H128.23v429.81l354 202.28a60.009 60.009 0 0 0 59.54 0L896 557.67V128z" fill="#E6E6E6" /><path d="M79.12 805.95L482.24 575.6a60.009 60.009 0 0 1 59.54 0L944.9 805.95A29.996 29.996 0 0 1 960.02 832v98c0 16.57-13.43 30-30 30H94c-16.57 0-30-13.43-30-30v-98c0-10.77 5.77-20.71 15.12-26.05z" fill="#6eabf8" /><path d="M192.01 256m8 0l623.99 0q8 0 8 8l0 0q0 8-8 8l-623.99 0q-8 0-8-8l0 0q0-8 8-8Z" fill="#FFFFFF" /><path d="M192.01 320m8 0l623.99 0q8 0 8 8l0 0q0 8-8 8l-623.99 0q-8 0-8-8l0 0q0-8 8-8Z" fill="#FFFFFF" /><path d="M192.01 384m8 0l623.99 0q8 0 8 8l0 0q0 8-8 8l-623.99 0q-8 0-8-8l0 0q0-8 8-8Z" fill="#FFFFFF" /><path d="M192.01 448m8 0l623.99 0q8 0 8 8l0 0q0 8-8 8l-623.99 0q-8 0-8-8l0 0q0-8 8-8Z" fill="#FFFFFF" /></svg>