<?xml version="1.0" standalone="no"?><!DOCTYPE svg PUBLIC "-//W3C//DTD SVG 1.1//EN" "http://www.w3.org/Graphics/SVG/1.1/DTD/svg11.dtd"><svg class="icon" width="200px" height="200.00px" viewBox="0 0 1024 1024" version="1.1" xmlns="http://www.w3.org/2000/svg"><path d="M930 192H530.54a30 30 0 0 1-26.83-16.58l-47.42-94.83a30 30 0 0 0-26.83-16.58H94c-16.57 0-30 13.43-30 30V930c0 16.57 13.43 30 30 30h836c16.57 0 30-13.43 30-30V222c0-16.57-13.43-30-30-30z" fill="#2a40c1" /><path d="M128 256m30 0l708 0q30 0 30 30l0 132q0 30-30 30l-708 0q-30 0-30-30l0-132q0-30 30-30Z" fill="#FFFFFF" /><path d="M128 320m30 0l708 0q30 0 30 30l0 132q0 30-30 30l-708 0q-30 0-30-30l0-132q0-30 30-30Z" fill="#038AFF" /><path d="M128 384m30 0l708 0q30 0 30 30l0 516q0 30-30 30l-708 0q-30 0-30-30l0-516q0-30 30-30Z" fill="#FFFFFF" /><path d="M96 448m30 0l772 0q30 0 30 30l0 452q0 30-30 30l-772 0q-30 0-30-30l0-452q0-30 30-30Z" fill="#6eabf8" /></svg>