<svg width="1024" height="1024" xmlns="http://www.w3.org/2000/svg" class="icon">

 <g>
  <title>background</title>
  <rect fill="none" id="canvas_background" height="402" width="582" y="-1" x="-1"/>
 </g>
 <g>
  <title>Layer 1</title>
  <path id="svg_1" fill="#2f44bb" d="m929,960l-836,0c-16.57,0 -30,-13.429993 -30,-30l0,-836c0,-16.57 13.43,-30 30,-30l686,0l180,180l0,686c0,16.570007 -13.429993,30 -30,30z"/>
  <path id="svg_2" fill="#13227a" d="m192,64.07l512,0l0,289.93c0,16.559998 -13.440002,30 -30,30l-452,0c-16.559998,0 -30,-13.440002 -30,-30l0,-289.93z"/>
  <path id="svg_3" fill="#44c0ff" d="m832,960l-640,0l0,-418c0,-16.559998 13.440002,-30 30,-30l580,0c16.559998,0 30,13.440002 30,30l0,418z"/>
  <path id="svg_4" fill="#E6E6E6" d="m208,64.07l432,0l0,283.93c0,11.040009 -8.960022,20 -20,20l-392,0c-11.039993,0 -20,-8.959991 -20,-20l0,-283.93z"/>
  <path id="svg_5" fill="#44c0ff" d="m256,128m30,0l4,0q30,0 30,30l0,132q0,30 -30,30l-4,0q-30,0 -30,-30l0,-132q0,-30 30,-30z"/>
  <path id="svg_6" fill="#FFFFFF" d="m256,576m8,0l367.97998,0q8,0 8,8l0,0q0,8 -8,8l-367.97998,0q-8,0 -8,-8l0,0q0,-8 8,-8z"/>
  <path id="svg_7" fill="#FFFFFF" d="m256,640m8,0l367.97998,0q8,0 8,8l0,0q0,8 -8,8l-367.97998,0q-8,0 -8,-8l0,0q0,-8 8,-8z"/>
  <path id="svg_8" fill="#FFFFFF" d="m256,704m8,0l367.97998,0q8,0 8,8l0,0q0,8 -8,8l-367.97998,0q-8,0 -8,-8l0,0q0,-8 8,-8z"/>
  <path id="svg_9" fill="#FFFFFF" d="m256,768m8,0l367.97998,0q8,0 8,8l0,0q0,8 -8,8l-367.97998,0q-8,0 -8,-8l0,0q0,-8 8,-8z"/>
 </g>
</svg>