<svg id="图层_1" data-name="图层 1" xmlns="http://www.w3.org/2000/svg" viewBox="0 0 256 256"><defs><style>.cls-1,.cls-2,.cls-3{isolation:isolate;}.cls-2{font-size:3.78px;}.cls-2,.cls-3,.cls-4{fill:#73ba25;}.cls-2,.cls-3{font-family:Helvetica;}.cls-3{font-size:5.67px;}.cls-4{fill-rule:evenodd;}</style></defs><g id="layer1-5"><g id="layer1-7"><g id="text3761" class="cls-1"><text class="cls-2" transform="translate(29.39 86.66)"> </text></g><g id="text3765" class="cls-1"><text class="cls-3" transform="translate(29.73 84.72)"> </text></g><g id="layer1-8"><path id="path2445" class="cls-4" d="M127.36,4a124,124,0,1,0,124,124A124,124,0,0,0,127.36,4Zm.6,17.17a106.83,106.83,0,1,1-80,177.57C56,192.45,69.45,194,86,195.86c7.94.9,17,1.94,26.35,2.15,26.12.15,54.22-4.62,71.57-12.2,11.21-4.92,18.39-8.15,22.88-12.24,1.62-1.33,2.47-3.54,3.34-5.84l.59-1.56a68.52,68.52,0,0,0,2.24-8c.21-.95.31-2-.37-2.51l-2.42.46c-7.61,4.56-26.62,13.26-44.44,13.61-22.07.46-66.56-22.22-71.2-24.62l-.46-.55c-1.11-2.65-7.77-18.46-9.18-21.78,32,21.09,58.58,32.76,78.92,34.57,22.63,2,40.28-10.34,47.82-15.62a27.47,27.47,0,0,1,3.06-2l.51-.82c-1.26-8-13.13-46.44-22.06-55.68-2.48-2.53-4.45-5-8.45-7.35C152.37,57,75.56,45.67,72,45.14l-.59.18-.23.51s-.29,16-.32,17.72C68.18,62.67,60,60,48.3,56.79,63.58,37.89,87,21.12,128,21.12Zm28.22,56.54c.55,0,1.1,0,1.65,0a33,33,0,0,1,31.74,34,32.94,32.94,0,0,1-34,31.69,33,33,0,0,1-31.74-34,32.87,32.87,0,0,1,32.33-31.7Zm-.87,9.68a22.93,22.93,0,0,0-21.42,22.06,22.92,22.92,0,1,0,23.66-22.06C156.79,87.31,156.07,87.3,155.31,87.34Zm6,11.47c5.62,0,10.14,3,10.14,6.8s-4.52,6.81-10.14,6.81-10.18-3.08-10.18-6.81S155.71,98.81,161.34,98.81Z"/></g></g></g></svg>